<?xml version="1.0" encoding="utf-8"?>
<!-- Generator: Adobe Illustrator 17.1.0, SVG Export Plug-In . SVG Version: 6.00 Build 0)  -->
<!DOCTYPE svg PUBLIC "-//W3C//DTD SVG 1.1//EN" "http://www.w3.org/Graphics/SVG/1.1/DTD/svg11.dtd">
<svg version="1.1" id="Layer_1" xmlns="http://www.w3.org/2000/svg" xmlns:xlink="http://www.w3.org/1999/xlink" x="0px" y="0px"
	 viewBox="0 102 612.4 588.4" enable-background="new 0 102 612.4 588.4" xml:space="preserve">
<path fill="#FFFFFF" d="M567.9,353.2c15.5,0,31.6-0.7,44.4-2.3V221.8c-10.5-3.3-34.2-4.6-51-4.6h-70.5c0,68.8-0.3,91.5,1.3,136.3"/>
<path fill="#FFFFFF" d="M43.5,475h133c7.2,0,42.8,1.6,50.7-4.6l-5.9,30.6c9.2,5.3,35.9,4.6,49.1,4.6h122.8c7.2,0,42.8,1.6,50.7-4.6
	l-6.3,32.6c-4.6-7.6-32.9-7.6-42.8-7.6h-44.1c-2,12.5-3.3,62.2-3.3,118.8c0,16.1,0,30.9,0,44.8h169.5c2.6-11.2,3.3-25.7,3.3-59.6
	v-55.3L455,474c-14.2-22.1-30-46.7-39.8-54h53c-0.7,10.5,10.2,28,20.4,44.1l57.3,89.2c0,0,25.7-39.8,51.7-79.3
	c4.9-7.6,10.2-16.1,14.8-24.7v-74.7c-14.5-0.7-33.9-0.3-48.7-0.3H442.5c4.3-24.7,7.9-81,7.9-171.5c0-46.7-0.3-79-1.3-100.7H113.9
	c-33.3,30.6-53.7,74.7-53.7,129.7c0,116.9,74.1,201.8,201.5,201.8c50.4,0,86.9-15.8,100.4-23c1.3-22.7,2.6-131.4-4-144.9h45.1
	c-4,9.9-4.3,58.6-4.3,74.7c0,15.8,1.3,81.6,1.3,81.6c-13.5,6.3-71.4,28.3-137,28.3C79.7,450.6,19.1,335.8,19.1,244.9
	C19.1,186,42.8,137.6,80,102H0v370.7C11.9,475.7,32.3,475,43.5,475"/>
<path fill="#FFFFFF" d="M573.5,196.5c13.2,0,28,0.3,38.5-1.3V102H492.5c-1.3,30.6-2,66.2-2,94.5"/>
<path fill="#FFFFFF" d="M555,575.4v55c0,33.9,1,48.4,3,59.6h54V487.8"/>
<path fill="#FFFFFF" d="M308.5,645.2c0-56.6-0.3-106.3-2.6-118.8H266c-17.1,0-37.5-0.3-51.4,7.6l5.9-30.6
	c-4.9-7.6-32.6-7.6-42.8-7.6h-45.1c-2,12.5-3.3,62.2-3.3,118.8c0,29.3,0.3,54.3,0.3,75.1H308C308.5,676.5,308.5,661.7,308.5,645.2"
	/>
<path fill="#FFFFFF" d="M91.2,614.9c0-56.6-0.3-106.3-3-118.8H39.5c-12.5,0-27-0.3-39.5,3v191.3h90.9
	C91.2,668.9,91.2,643.9,91.2,614.9"/>
</svg>
