<?xml version="1.0" encoding="utf-8"?>
<!-- Generator: Adobe Illustrator 17.1.0, SVG Export Plug-In . SVG Version: 6.00 Build 0)  -->
<!DOCTYPE svg PUBLIC "-//W3C//DTD SVG 1.1//EN" "http://www.w3.org/Graphics/SVG/1.1/DTD/svg11.dtd">
<svg version="1.1" id="Layer_1" xmlns="http://www.w3.org/2000/svg" xmlns:xlink="http://www.w3.org/1999/xlink" x="0px" y="0px"
	 viewBox="122 158 365.5 473" enable-background="new 122 158 365.5 473" xml:space="preserve">
<g>
	<path d="M455.7,292.3l-145.8-84.2c-2.9-1.7-6.5-1.7-9.3,0l-145.8,84.2c-2.9,1.7-4.7,4.7-4.7,8v168.4c0,3.3,1.7,6.5,4.7,8
		l145.8,84.2c1.4,0.9,3,1.3,4.7,1.3s3.2-0.4,4.7-1.3l145.8-84.2c2.9-1.7,4.7-4.7,4.7-8V300.3C460.3,297,458.6,293.9,455.7,292.3z
		 M305.1,226.9l127.1,73.4l-95.4,55l-31.7,18.4l-31.7-18.4l-95.4-55L305.1,226.9z M168.7,316.6l95.4,55l31.7,18.4v146.8l-127.1-73.6
		V316.6z M441.6,463.2l-127.1,73.4V390l31.7-18.4l95.4-55V463.2z"/>
</g>
</svg>
