<?xml version="1.0" encoding="utf-8"?>
<!-- Generator: Adobe Illustrator 17.1.0, SVG Export Plug-In . SVG Version: 6.00 Build 0)  -->
<!DOCTYPE svg PUBLIC "-//W3C//DTD SVG 1.1//EN" "http://www.w3.org/Graphics/SVG/1.1/DTD/svg11.dtd">
<svg version="1.1" id="Layer_1" xmlns="http://www.w3.org/2000/svg" xmlns:xlink="http://www.w3.org/1999/xlink" x="0px" y="0px"
	 viewBox="17.6 12 64.7 56.1" enable-background="new 17.6 12 64.7 56.1" xml:space="preserve">
<g>
	<path d="M76.6,27.7H39.2c-3.2,0-5.8,2.6-5.8,5.8v28.7c0,3.2,2.6,5.8,5.8,5.8h37.4c3.2,0,5.8-2.6,5.8-5.8V33.5
		C82.4,30.3,79.8,27.7,76.6,27.7z M78.8,62.2c0,1.2-1,2.2-2.2,2.2H39.2c-1.2,0-2.2-1-2.2-2.2V33.5c0-1.2,1-2.2,2.2-2.2h37.4
		c1.2,0,2.2,1,2.2,2.2V62.2z"/>
	<path d="M21.2,46.5V17.8c0-1.2,1-2.2,2.2-2.2h37.4c1.2,0,2.2,1,2.2,2.2v5.3h3.6v-5.3c0-3.2-2.6-5.8-5.8-5.8H23.4
		c-3.2,0-5.8,2.6-5.8,5.8v28.7c0,3.2,2.6,5.8,5.8,5.8h4.1v-3.6h-4.1C22.2,48.7,21.2,47.7,21.2,46.5z"/>
</g>
</svg>
