<svg xmlns="http://www.w3.org/2000/svg" xmlns:xlink="http://www.w3.org/1999/xlink" version="1.1" x="0px" y="0px" viewBox="0 0 100 100" enable-background="new 0 0 100 100" xml:space="preserve"><path fill-rule="evenodd" clip-rule="evenodd" d="M7.48,35.02c0-13.24,18.96-23.98,42.38-24.02H50h0.16  c23.41,0.05,42.36,10.78,42.36,24.02c0,2.9-0.9,5.67-2.57,8.24C82.46,35.13,67.38,29.57,50,29.57s-32.46,5.56-39.95,13.69  C8.38,40.69,7.48,37.92,7.48,35.02z M91.91,45.69l-0.02-0.02C86.63,53.22,75.13,59,60.98,61v-8.52L29.43,70.74L60.98,89v-9.43  C80.52,76.81,95,66.83,95,54.95v-0.31V37.62h-0.05c-0.24,2.82-1.3,5.52-3.04,8.03V45.69z M24.18,75.74C12.58,71.15,5,63.55,5,54.95  v-0.31V37.62h0.05c0.24,2.82,1.3,5.52,3.04,8.03v0.04l0.02-0.02c3.25,4.67,8.89,8.66,16.07,11.5V75.74z"></path></svg>