<?xml version="1.0" encoding="utf-8"?>
<!-- Generator: Adobe Illustrator 17.1.0, SVG Export Plug-In . SVG Version: 6.00 Build 0)  -->
<!DOCTYPE svg PUBLIC "-//W3C//DTD SVG 1.1//EN" "http://www.w3.org/Graphics/SVG/1.1/DTD/svg11.dtd">
<svg version="1.1" id="Layer_1" xmlns="http://www.w3.org/2000/svg" xmlns:xlink="http://www.w3.org/1999/xlink" x="0px" y="0px"
	 viewBox="31.4 183.3 535 290.4" enable-background="new 31.4 183.3 535 290.4" xml:space="preserve">
<path d="M478.1,213.2c-48.5-19.1-111.9-29.8-179.3-29.8s-131.1,10.5-179.3,29.8c-32.9,13-88.2,42.8-88.2,94.4s55.3,81.1,88.2,94.3
	c16.3,6.4,34.2,12,53.3,16.3l-0.8-60.9c-11-3.1-21.4-6.4-30.9-10.2C106.1,333,90,316.7,90,307.5s16.1-25.5,51.3-39.5
	c41.6-16.6,97.7-25.8,157.6-25.8s116,9.2,157.6,25.8c35.2,14,51.3,30.3,51.3,39.5S491.6,333,456.4,347
	c-14.5,5.9-30.9,10.7-48.7,14.5c0,0-21.9,5.6-43.9,9.2l1-66l-149.7,85.7l147.1,83.4l0.8-46.9c13.3-0.3,29.3-1.5,45.4-5.4
	c25.2-4.8,48.7-11.5,69.6-19.6c32.9-13,88.2-42.8,88.2-94.3S511,226.4,478.1,213.2z"/>
</svg>
