<?xml version="1.0" encoding="utf-8"?>
<!-- Generator: Adobe Illustrator 17.1.0, SVG Export Plug-In . SVG Version: 6.00 Build 0)  -->
<!DOCTYPE svg PUBLIC "-//W3C//DTD SVG 1.1//EN" "http://www.w3.org/Graphics/SVG/1.1/DTD/svg11.dtd">
<svg version="1.1" id="Layer_1" xmlns="http://www.w3.org/2000/svg" xmlns:xlink="http://www.w3.org/1999/xlink" x="0px" y="0px"
	 viewBox="31.4 206.1 100.1 54.2" enable-background="new 31.4 206.1 100.1 54.2" xml:space="preserve">
<path fill="#FFFFFF" d="M114.9,211.7c-9.1-3.6-20.9-5.6-33.5-5.6s-24.5,2-33.5,5.6c-6.1,2.4-16.5,8-16.5,17.6s10.3,15.2,16.5,17.6
	c3,1.2,6.4,2.2,10,3l-0.1-11.4c-2.1-0.6-4-1.2-5.8-1.9c-6.5-2.6-9.6-5.7-9.6-7.4s3-4.8,9.6-7.4c7.8-3.1,18.3-4.8,29.5-4.8
	s21.7,1.7,29.5,4.8c6.6,2.6,9.6,5.7,9.6,7.4s-3,4.8-9.6,7.4c-2.7,1.1-5.8,2-9.1,2.7c0,0-4.1,1-8.2,1.7l0.2-12.3l-28,16l27.5,15.6
	l0.1-8.8c2.5-0.1,5.5-0.3,8.5-1c4.7-0.9,9.1-2.1,13-3.7c6.1-2.4,16.5-8,16.5-17.6C131.4,219.8,121,214.2,114.9,211.7z"/>
</svg>
