<?xml version="1.0" encoding="utf-8"?>
<!-- Generator: Adobe Illustrator 17.1.0, SVG Export Plug-In . SVG Version: 6.00 Build 0)  -->
<!DOCTYPE svg PUBLIC "-//W3C//DTD SVG 1.1//EN" "http://www.w3.org/Graphics/SVG/1.1/DTD/svg11.dtd">
<svg version="1.1" id="Layer_1" xmlns="http://www.w3.org/2000/svg" xmlns:xlink="http://www.w3.org/1999/xlink" x="0px" y="0px"
	 viewBox="0 0 78.8 56.9" enable-background="new 0 0 78.8 56.9" xml:space="preserve">
<path fill="#FFFFFF" stroke="#000000" stroke-width="6" stroke-miterlimit="10" d="M40.7,45.2"/>
<polygon points="54.3,54.9 36.4,40.4 54.2,24.7 "/>
<path d="M29.3,44.5C11.8,42,0,33.2,0,22.6C0,9.7,16.9,0,39.4,0s39.4,9.7,39.4,22.6c0,10.1-10.7,18.6-27.2,21.6l-3.3,0.6l-1.1-7.4
	l3.3-0.6C62.9,34.5,72,28.6,72,22.6c0-7.1-13.4-16.2-32.6-16.2c-19.2,0-32.6,9-32.6,16.2c0,6.3,10.1,12.5,23.4,14.5L29.3,44.5z"/>
</svg>
